<?xml version="1.0" encoding="UTF-8"?><svg id="Layer_1" xmlns="http://www.w3.org/2000/svg" viewBox="0 0 961.05 961.28"><defs><style>.cls-1{fill:#c4bbaa;}</style></defs><path class="cls-1" d="m450.43.2c-.2.2-5.1.6-10.9,1-5.8.3-12,.8-13.7,1-8.5,1.2-10.2,1.4-15.3,2-6.2.7-10.8,1.4-13,2-.8.2-3.5.7-6,1-8.1,1.1-32.3,6.5-43.5,9.6-24.3,6.8-51,16.8-72.3,27-6.8,3.2-12.5,5.9-12.7,5.9-.5,0-23.1,12.8-29.7,16.8-5.6,3.5-17.1,10.9-25.8,16.9-3,2-22,16.3-23.7,17.8-.7.5-1.8,1.4-2.5,2-18.6,14.3-50.3,44.9-67.8,65.5-3,3.6-5.9,7-6.5,7.6-.5.6-2.3,2.8-4,4.9-1.6,2-3.5,4.2-4.1,4.9-1.9,2-19.7,26.7-23.5,32.6-8.3,12.7-11.5,17.9-12.5,20-.4.8-1.8,3.2-3.2,5.4-7.3,11.7-22.7,44.4-30,63.6-12.7,33.3-23.1,76.3-26.7,110.5-.3,3.3-.8,7.3-1,9-2.7,21.3-2.7,93.1,0,107.5.1.8.6,4.2.9,7.5,3.9,37.4,15.1,82.2,29.6,118.5,42.4,106.3,133.3,203.8,237.5,254.5,13.2,6.4,32.1,14.5,33.8,14.5.7,0,1.7.4,2.2.9,1,.9,23.2,8.9,26.8,9.6,1,.2,5.5,1.5,10,2.9,13.8,4.2,45.2,11,60,13.1,2.7.3,5.6.8,6.5.9,4.7.9,15.7,2,30.7,3.3,19.9,1.6,79.8.9,95-1.2,1.7-.3,8.6-1.2,15.5-2.1s13.4-1.8,14.5-1.9c10.1-1.8,20.6-3.8,23.5-4.5,1.9-.5,4.6-1.1,6-1.4,1.4-.2,7.7-1.8,14-3.6,6.3-1.7,12.3-3.3,13.2-3.5,7.7-1.7,39.2-13.3,54.3-20,24-10.5,66.2-34.8,82-47.2,1.7-1.3,3.5-2.7,4-3.1,5.8-4.2,13.3-9.9,15-11.3,1.1-.9,5.4-4.5,9.5-7.9,28.4-23.5,58.3-54.9,81.3-85.1,8-10.7,25.7-36.3,25.7-37.3,0-.2,2.4-4.4,5.4-9.3,22.4-37.2,43.6-91.8,52-134.3.2-1.4,1-5,1.6-8s1.3-6.6,1.5-8c2.6-17.6,3.5-23.3,4-28,.3-3,.8-6.6,1-8,2.7-15.7,2.7-86,0-108-.3-1.9-.9-7.3-1.5-12-.5-4.7-1.2-9.6-1.5-11s-.7-4.4-1-6.8-1-6.3-1.5-8.8c-.6-2.4-1.3-6.1-1.6-8.2-1.1-7.7-9.6-40-14-53.1-4.8-14.3-10-28.1-14-36.9-1.3-2.9-2.4-5.5-2.4-5.9,0-1.2-16-32.4-21.5-41.8-6.9-12-16.6-26.9-24.9-38.5-5.4-7.6-20.4-26.8-23.1-29.6-.5-.6-2.8-3.2-5-5.9-9.1-10.9-29.4-31.8-44.1-45.1-14.2-13-23.6-20.7-38.4-31.8-4.1-3-7.9-5.9-8.5-6.4-.5-.4-6.8-4.7-14-9.4-44.4-29.3-93-50.4-142.8-62.2-10.8-2.6-28.5-6.1-35.2-7.1-2.2-.3-6.5-.9-9.5-1.4-5.3-.9-11-1.6-21.5-2.7-2.7-.3-7.2-.7-10-1-5.9-.6-72.1-1.5-72.6-.9Zm-90.1,246.4c3.1.1,3.5.5,6.8,7.8,3.5,7.5,4.8,10.4,11.2,24.3,1.6,3.6,5.3,11.7,8.2,18s6.5,14.2,8,17.5,7.3,16.1,12.9,28.4c11.7,25.6,14.8,32.3,20.2,43.9,2.2,4.6,3.9,8.5,3.9,8.7s3.1,7,6.9,15.2c8.1,17.5,10.6,23,17.6,38.3,2.9,6.3,6.4,14,7.8,17s6,13.1,10.2,22.5c4.3,9.3,9.1,19.9,10.8,23.5,1.6,3.6,4.9,10.7,7.2,15.8l4.2,9.3,2.3-5.8c1.2-3.2,2.8-7.2,3.6-8.8.7-1.7,12.9-32,26.9-67.5,14.1-35.5,26-65.4,26.5-66.5s7.7-19.1,16-40,15.5-38.9,16-40,5-12.4,10-25c5-12.7,9.7-24.4,10.5-26,.7-1.7,1.9-4.7,2.6-6.8,1-2.9,1.8-3.7,3.9-3.8,1.4,0,38.2-.1,81.8-.2l79.2-.2v10.2l-16.2,15.4c-8.9,8.5-20.3,19.4-25.4,24.2-6.4,6.1-9.5,9.8-10,12-1.1,5-.7,343.8.4,346.7.5,1.4,12,13.3,25.6,26.5l24.6,23.9v4.8c0,4.3-.2,4.8-2.2,4.9-2.7.1-225.5.1-228,0-1.3-.1-1.6-1.1-1.6-4.8v-4.7l24.5-24c15.6-15.3,25.2-25.5,26.3-27.9,1.6-3.6,1.7-12.7,1.8-140,0-74.9-.4-135.3-.9-134.2-.4,1.1-5.1,13-10.4,26.5s-10,25.4-10.4,26.5c-.5,1.1-3.2,8.1-6.1,15.5-5.7,15-7.5,19.5-10.2,25.7-1,2.3-1.8,4.7-1.8,5.3,0,.5-.4,1.8-1,2.8-.5.9-3.9,9.3-7.6,18.7-12.3,31.8-20.6,53-27.9,71.5-4,10.2-11.2,28.6-15.9,41-4.8,12.4-9.1,23.4-9.6,24.5s-7.4,18.6-15.4,39l-14.4,37-9.4.3-9.4.3-1.9-4.3c-1-2.4-3.6-8.1-5.8-12.8s-7.7-16.6-12.2-26.5c-4.6-9.9-9.6-20.9-11.3-24.5-1.6-3.6-3.9-8.5-5-11s-3.9-8.6-6.2-13.5c-2.3-5-5.3-11.5-6.7-14.5-18.5-40.3-36.3-79-39-85-1.9-4.1-4.6-9.9-5.9-12.8-5.5-12-11.9-26-17.1-37.2-1.7-3.6-4.2-9-5.6-12-1.3-3-3.8-8.4-5.5-12-1.6-3.6-5.3-11.7-8.2-18s-6.9-15.1-8.9-19.5c-2.1-4.4-6.2-13.3-9.1-19.7-3-6.5-5.6-11.6-5.8-11.3-.8.7-.5,231.8.2,234.5,1.9,6.6,7.2,13.7,37.5,50.6,32.6,39.7,32.7,39.7,32.6,44.3l-.1,4.6-87.7.3-87.7.2-.1-2.7c-.3-7.2-.9-6.3,32-46.2,2-2.4,4.1-4.9,4.6-5.5.6-.6,3.7-4.5,7-8.6s6.2-7.7,6.5-8c2.9-2.6,20-24.5,19.2-24.5-.2,0,0-.9.5-2,.4-1.1.8-64.6.8-141v-139l-2.8-5.5c-1.5-3-4.4-7.4-6.5-9.6-2-2.3-4.4-5-5.2-6-.8-1.1-4.9-5.9-9-10.9-4.1-4.9-8.2-9.8-9-10.9-1.9-2.3-8.7-10.4-10.3-12.2-.7-.7-2.3-2.7-3.7-4.5s-3-3.7-3.5-4.3c-.6-.6-3.3-3.8-6-7.1-2.8-3.3-5.6-6.6-6.2-7.3-.7-.7-1.3-3.5-1.3-6.2,0-3.7.4-4.9,1.7-5.2,1.4-.2,155.1-.2,166.1.1Z"/></svg>